<svg width="50" height="50" viewBox="0 0 50 50" fill="none" xmlns="http://www.w3.org/2000/svg">
<rect x="21.0844" y="22.2892" width="9.37129" height="18.7426" rx="4" transform="rotate(45 21.0844 22.2892)" fill="#3E8C5E"/>
<rect x="36.1447" y="22.8916" width="9.37129" height="18.7426" rx="4" transform="rotate(45 36.1447 22.8916)" fill="#3E8C5E"/>
<rect x="20.4819" y="7.22891" width="9.37129" height="18.7426" rx="4" transform="rotate(45 20.4819 7.22891)" fill="#3E8C5E"/>
<rect x="35.5422" y="7.83133" width="9.37129" height="18.7426" rx="4" transform="rotate(45 35.5422 7.83133)" fill="#3E8C5E"/>
<rect x="21.0844" y="22.2892" width="9.37129" height="18.7426" rx="4" transform="rotate(45 21.0844 22.2892)" fill="#3E8C5E"/>
<rect x="36.1447" y="22.8916" width="9.37129" height="18.7426" rx="4" transform="rotate(45 36.1447 22.8916)" fill="#3E8C5E"/>
<rect x="20.4819" y="7.22891" width="9.37129" height="18.7426" rx="4" transform="rotate(45 20.4819 7.22891)" fill="#3E8C5E"/>
<rect x="35.5422" y="7.83133" width="9.37129" height="18.7426" rx="4" transform="rotate(45 35.5422 7.83133)" fill="#3E8C5E"/>
</svg>
