<svg width="50" height="50" viewBox="0 0 50 50" fill="none" xmlns="http://www.w3.org/2000/svg">
<rect x="21.0844" y="22.2892" width="9.37129" height="18.7426" rx="4" transform="rotate(45 21.0844 22.2892)" fill="#FC9B46"/>
<rect x="36.1446" y="22.8916" width="9.37129" height="18.7426" rx="4" transform="rotate(45 36.1446 22.8916)" fill="#FC9B46"/>
<rect x="20.4819" y="7.22891" width="9.3713" height="18.7426" rx="4" transform="rotate(45 20.4819 7.22891)" fill="#FC9B46"/>
<rect x="35.5422" y="7.8313" width="9.37129" height="18.7426" rx="4" transform="rotate(45 35.5422 7.8313)" fill="#FC9B46"/>
<rect x="21.0844" y="22.2892" width="9.37129" height="18.7426" rx="4" transform="rotate(45 21.0844 22.2892)" fill="#FC9B46"/>
<rect x="36.1446" y="22.8916" width="9.37129" height="18.7426" rx="4" transform="rotate(45 36.1446 22.8916)" fill="#FC9B46"/>
<rect x="20.4819" y="7.22891" width="9.3713" height="18.7426" rx="4" transform="rotate(45 20.4819 7.22891)" fill="#FC9B46"/>
<rect x="35.5422" y="7.8313" width="9.37129" height="18.7426" rx="4" transform="rotate(45 35.5422 7.8313)" fill="#FC9B46"/>
</svg>
